<svg xmlns="http://www.w3.org/2000/svg" width="688" height="688"><path fill="none" d="M0 0h688v688H0z"/><path fill="#67e8f9" d="m265.684 49.054 4.293.964c4.071 11.47 9.104 21.931 15.366 32.376 8.58 14.308 25.168 24.408 41.151 28.363a73.1 73.1 0 0 0 55.188-8.233c20.66-12.493 30.52-32.388 36.046-55.061 30.313 9.16 57.87 21.282 85.857 36.033-4.303 7.62-8.604 15.221-11.133 23.641a72.51 72.51 0 0 0 5.457 55.91 72.67 72.67 0 0 0 43.604 35.398c23.293 6.742 44.543.736 65.153-10.566 15.486 28.023 25.89 56.925 35.232 87.457-5.71 2.332-11.467 4.682-16.996 7.421-17.647 8.741-31.92 25.443-38.085 44.097a71.66 71.66 0 0 0 4.118 54.765c10.33 20.37 27.897 32.114 49.106 39.035-9.648 30.689-22.313 58.868-37.943 86.942a63 63 0 0 0-3.604-2.197c-14.994-8.429-34.848-9.94-51.275-5.34-18.275 5.117-33.928 18.004-43.151 34.513-13.232 23.685-10.341 46.88-3.21 71.95-22.073 11.475-44.645 20.808-67.975 29.395-3.541.993-11.216 3.682-14.742 2.95-5.299-1.1-15.52-21.96-20.236-26.813-5.023-5.17-12.913-10.082-19.34-13.387a69.5 69.5 0 0 0-53.416-4.366c-24.101 7.775-38.456 25.699-49.54 47.482-30.08-8.92-57.343-19.76-85.245-34.154 6.952-18.353 9.663-37.178 3.56-56.18a71.6 71.6 0 0 0-35.915-42.08c-23.803-12.091-46.704-8.211-70.995-.298-14.277-27.949-27.088-53.78-37.36-83.638 5.554-2.616 11.251-5.052 16.633-8.009 16.887-9.276 30.532-26.63 35.872-45.08a70.62 70.62 0 0 0-5.961-53.945c-11.29-20.39-28.699-31.072-50.508-37.378 8.044-31.874 19.384-59.931 33.618-89.515 10.908 6.328 22.835 11.37 35.466 12.66 19.939 2.035 39.238-3.986 54.714-16.704 14.708-12.088 24.854-29.985 26.706-49.028 1.832-18.839-4.638-37.438-16.528-51.952C207.7 71 235.225 58.99 265.684 49.054"/><path fill="#FEFEFE" d="M329.604 143.537c111.111-8.053 207.585 75.786 215.102 186.936 7.516 111.149-76.789 207.215-187.973 214.195-110.427 6.933-205.697-76.674-213.163-187.066-7.466-110.393 75.68-206.065 186.034-214.065"/><path fill="#1F1C1D" d="m331.726 165.02.519-.058c59.463-6.41 118.225 24.384 154.24 70.266 5.163 6.578 23.51 40.214 26.21 42.143 2.216 1.583 5.662 1.14 8.404 3.374-.978 10.691-1.363 21.285-1.518 32.017-4.51-4.056-19.933-16.038-20.502-21.657-.541-5.333 1.216-8.99-1.018-14.497-18.456-45.495-57.284-75.013-101.316-93.135l.193 31.58c5.626 5.885 11.387 11.604 11.846 20.258.191 3.615-.808 7.203-3.27 9.912-3.187 3.508-8.017 5.069-12.66 5.226-4.991.17-11.424-1.37-15.08-4.993-3.34-3.311-4.429-7.066-4.4-11.659.047-7.516 6.847-13.306 11.792-18.219.371-11.617.069-23.263-.08-34.884-11.798-2.626-23.209-4.352-35.258-5.3a5720 5720 0 0 0-.277 86.982c3.893 3.89 8.103 8.14 9.84 13.503 1.576 4.86.942 11.237-1.482 15.728-1.828 3.39-5.05 5.457-8.7 6.46-7.484 2.055-12.819-.948-19.096-4.57-2.091-3.633-4.238-7.334-4.396-11.622-.299-8.1 6.63-14.026 11.72-19.541.45-28.937.33-57.895.416-86.835-11.92.786-23.308 2.647-35.026 4.888l-.068 36.923c4.01 4.357 8.54 9.055 10.594 14.704 1.946 5.358 1.072 9.44-1.32 14.426-3.851 3.992-7.427 6.339-13.088 6.814-5.08.426-11.012-.761-14.941-4.204-3.066-2.687-4.356-6.29-4.59-10.222-.543-9.128 6.097-15.367 11.765-21.648l.016-33.934c-16.975 7.014-33.034 14.518-48.001 25.378-46.453 33.708-61.398 79.732-69.982 133.725l-4.188 2.803-2.875-.692c-1.398-1.81-1.724-3.577-1.906-5.81-3.086-37.93 18.232-82.144 41.893-110.347 32.246-38.435 76.182-58.885 125.59-63.282"/><path fill="#67e8f9" d="m514.765 343.147 6.19 2.506c3.245 4.222 2.994 9.435 2.729 14.49-2.297 43.652-26.72 89.287-58.933 118.251A181.8 181.8 0 0 1 335 524.738a183.85 183.85 0 0 1-126.959-60.84c-11.443-12.822-30.889-36.36-35.201-53.033-1.694-6.549-.439-15.522-.064-22.285 5.712 4.793 15.072 11.228 18.782 17.586 2.841 4.87 1.47 7.187.166 12.334 21.909 43.776 55.063 68.122 98.512 87.815l.431-34.205c-4.208-4.294-8.609-8.78-11.033-14.375-2.465-5.687.09-10.978 2.237-16.34 4.557-3.351 8.867-5.686 14.576-6.363 3.659-.433 7.543.287 10.446 2.662 3.891 3.182 5.135 8.177 5.589 12.976.903 9.557-4.21 14.614-9.92 21.501l-1.188 37.141a1193 1193 0 0 1 35.931 5.111l-.053-86.409c-4.108-4.507-8.931-9.43-10.852-15.333-1.69-5.194-.76-9.193 1.655-13.918 3.672-3.84 7.18-5.96 12.559-6.546 5.176-.564 11.41.72 15.44 4.183 3.15 2.704 4.365 6.235 4.626 10.233.54 8.28-6.077 14.486-11.18 20.233a2061 2061 0 0 0-.743 87.919l36.2-5.55-.079-33.635c-4.393-4.824-9.7-10.252-10.963-16.892-.835-4.394-.362-8.924 2.299-12.632 2.708-3.772 7.001-5.95 11.524-6.66 5.054-.793 10.333.337 14.442 3.428 3.15 2.369 5.072 5.83 5.547 9.735 1.13 9.306-5.597 16.24-10.976 22.99l-.472 30.759a494 494 0 0 0 21.045-9.22c44.455-21.198 79.651-64.387 91.003-112.415 3.198-13.529 1.8-28.478 6.438-41.546"/></svg>